<?xml version="1.0" standalone="no"?>
<!DOCTYPE svg PUBLIC "-//W3C//DTD SVG 20010904//EN"
 "http://www.w3.org/TR/2001/REC-SVG-20010904/DTD/svg10.dtd">
<svg version="1.0" xmlns="http://www.w3.org/2000/svg"
 width="1080.000000pt" height="1080.000000pt" viewBox="0 0 1080.000000 1080.000000"
 preserveAspectRatio="xMidYMid meet">
<metadata>
Created by potrace 1.11, written by Peter Selinger 2001-2013
</metadata>
<g transform="translate(0.000000,1080.000000) scale(0.100000,-0.100000)"
fill="#000000" stroke="none">
<path d="M5495 8014 c-439 -35 -813 -132 -1170 -303 -297 -142 -501 -285 -715
-500 -194 -195 -311 -362 -390 -554 -73 -178 -107 -374 -96 -547 19 -303 151
-473 426 -549 77 -22 305 -50 315 -39 4 3 -6 29 -20 58 -106 208 -97 657 19
1005 77 231 191 410 376 596 136 136 254 222 417 303 251 125 471 183 786 208
396 31 673 -58 881 -283 243 -263 334 -668 297 -1334 -52 -960 -287 -1800
-653 -2343 -278 -412 -654 -542 -1003 -347 -36 20 -69 43 -72 51 -3 7 183 891
412 1964 230 1073 415 1953 413 1956 -7 6 -1016 -131 -1025 -139 -5 -6 -952
-4418 -953 -4439 0 -5 226 -8 503 -8 l503 0 18 93 c9 50 22 113 27 139 l10 47
55 -44 c205 -168 453 -286 663 -316 317 -45 650 74 939 335 565 511 983 1444
1109 2476 26 210 26 756 0 920 -98 627 -382 1107 -802 1355 -197 115 -391 180
-670 221 -97 14 -496 26 -600 18z"/>
</g>
</svg>
